<svg xmlns="http://www.w3.org/2000/svg" width="331.37152099609375" height="206.49935913085938" viewBox="-112.14292907714844 -26.097675323486328 331.37152099609375 206.49935913085938"><title>Neo4j Graph Visualization</title><desc>Created using Neo4j (http://www.neo4j.com/)</desc><g class="layer relationships"><g class="relationship" transform="translate(58.44362861056851 10.40232563881625) rotate(406.7058703021579)"><path class="outline" fill="#8DCC93" stroke="none" d="M 32.5 2.5 L 56.33930961300186 2.5 L 56.33930961300186 -2.5 L 32.5 -2.5 Z M 113.90180961300186 2.5 L 137.74111922600372 2.5 L 137.74111922600372 5.5 L 148.74111922600372 0 L 137.74111922600372 -5.5 L 137.74111922600372 -2.5 L 113.90180961300186 -2.5 Z"/><text text-anchor="middle" pointer-events="none" font-size="8px" fill="#000000" x="85.12055961300186" y="3" font-family="sans-serif">GENANNT_IN</text></g><g class="relationship" transform="translate(58.44362861056851 10.40232563881625) rotate(495.12573149540793)"><path class="outline" fill="#F79767" stroke="none" d="M 30.745541741638416,-10.826433531554594 L 32.03963696715102,-5.996804400109253 A 233.20286375150445 233.20286375150445 0 0 1 72.71725225788786,-13.111140610506936 L 72.29530788499262,-18.093305094562254 A 238.20286375150445 238.20286375150445 0 0 0 30.745541741638416,-10.826433531554594 Z M 105.7289016744577,-18.569620989151616 L 105.44905780553854,-13.577458390735131 A 233.20286375150445 233.20286375150445 0 0 1 146.31283350777218,-7.624811852152417 L 145.61924184476325,-4.706091138379942 L 157.5928025107787,-7.5139096825967435 L 148.16241127579602,-15.408067088879019 L 147.4688196127871,-12.489346375106544 A 238.20286375150445 238.20286375150445 0 0 0 105.7289016744577,-18.569620989151616"/><text text-anchor="middle" pointer-events="none" font-size="8px" fill="#000000" x="89.03934974146921" y="-13.419083055996708" transform="rotate(180 89.03934974146921 -16.41908305599671)" font-family="sans-serif">KENNT</text></g><g class="relationship" transform="translate(-75.64293290366615 143.90168801462892) rotate(315.12573149540793)"><path class="outline" fill="#F79767" stroke="none" d="M 30.745541741638416,-10.826433531554594 L 32.03963696715102,-5.996804400109253 A 233.20286375150445 233.20286375150445 0 0 1 72.71725225788786,-13.111140610506936 L 72.29530788499262,-18.093305094562254 A 238.20286375150445 238.20286375150445 0 0 0 30.745541741638416,-10.826433531554594 Z M 105.7289016744577,-18.569620989151616 L 105.44905780553854,-13.577458390735131 A 233.20286375150445 233.20286375150445 0 0 1 146.31283350777218,-7.624811852152417 L 145.61924184476325,-4.706091138379942 L 157.5928025107787,-7.5139096825967435 L 148.16241127579602,-15.408067088879019 L 147.4688196127871,-12.489346375106544 A 238.20286375150445 238.20286375150445 0 0 0 105.7289016744577,-18.569620989151616"/><text text-anchor="middle" pointer-events="none" font-size="8px" fill="#000000" x="89.03934974146921" y="-13.419083055996708" font-family="sans-serif">KENNT</text></g><g class="relationship" transform="translate(182.7285996281162 142.31740922466636) rotate(539.6486789789578)"><path class="outline" fill="#DA7194" stroke="none" d="M 32.5 2.5 L 80.6784292324503 2.5 L 80.6784292324503 -2.5 L 32.5 -2.5 Z M 166.6979604824503 2.5 L 214.8763897149006 2.5 L 214.8763897149006 5.5 L 225.8763897149006 0 L 214.8763897149006 -5.5 L 214.8763897149006 -2.5 L 166.6979604824503 -2.5 Z"/><text text-anchor="middle" pointer-events="none" font-size="8px" fill="#000000" x="123.6881948574503" y="3" transform="rotate(180 123.6881948574503 0)" font-family="sans-serif">GESCHRIEBEN_VON</text></g></g><g class="layer nodes"><g class="node" transform="translate(58.44362861056851,10.40232563881625)"><circle class="outline" cx="0" cy="0" r="32.5" fill="#FFC454" stroke="#d7a013" stroke-width="2px"/><text text-anchor="middle" pointer-events="none" font-family="sans-serif" dy="2.03125" font-size="32.5" fill="#604A0E"/><text text-anchor="middle" pointer-events="none" font-family="sans-serif" dy="2.03125" font-size="32.5" fill="#604A0E"/><text text-anchor="middle" pointer-events="none" y="0" font-size="10px" fill="#604A0E" font-family="sans-serif"> Kaiser</text><text text-anchor="middle" pointer-events="none" y="10" font-size="10px" fill="#604A0E" font-family="sans-serif"> Friedrich III.</text></g><g class="node" transform="translate(-75.64293290366615,143.90168801462892)"><circle class="outline" cx="0" cy="0" r="32.5" fill="#FFC454" stroke="#d7a013" stroke-width="2px"/><text text-anchor="middle" pointer-events="none" font-family="sans-serif" dy="2.03125" font-size="32.5" fill="#604A0E"/><text text-anchor="middle" pointer-events="none" font-family="sans-serif" dy="2.03125" font-size="32.5" fill="#604A0E"/><text text-anchor="middle" pointer-events="none" y="0" font-size="10px" fill="#604A0E" font-family="sans-serif"> Enea Silvio</text><text text-anchor="middle" pointer-events="none" y="10" font-size="10px" fill="#604A0E" font-family="sans-serif"> Piccolomini</text></g><g class="node" transform="translate(182.7285996281162,142.31740922466636)"><circle class="outline" cx="0" cy="0" r="32.5" fill="#4C8EDA" stroke="#2870c2" stroke-width="2px"/><text text-anchor="middle" pointer-events="none" font-family="sans-serif" dy="2.03125" font-size="32.5" fill="#FFFFFF"/><text text-anchor="middle" pointer-events="none" font-family="sans-serif" dy="2.03125" font-size="32.5" fill="#FFFFFF"/><text text-anchor="middle" pointer-events="none" y="0" font-size="10px" fill="#FFFFFF" font-family="sans-serif"> Historia</text><text text-anchor="middle" pointer-events="none" y="10" font-size="10px" fill="#FFFFFF" font-family="sans-serif"> Friderici III</text></g></g></svg>